<svg xmlns="http://www.w3.org/2000/svg" xmlns:xlink="http://www.w3.org/1999/xlink" width="53" height="53">
	<path
		fill-rule="evenodd"
		opacity="0.341"
		fill="rgb(163, 187, 200)"
		d="M41.984,33.594 C47.395,33.594 51.781,37.987 51.781,43.406 C51.781,48.825 47.395,53.219 41.984,53.219 C36.574,53.219 32.187,48.825 32.187,43.406 C32.187,37.987 36.574,33.594 41.984,33.594 Z"
	/>
	<path
		fill-rule="evenodd"
		fill="rgb(163, 187, 200)"
		d="M25.463,49.206 C20.103,49.206 15.010,47.509 10.735,44.300 C10.321,43.990 10.237,43.401 10.548,42.988 C10.859,42.573 11.447,42.490 11.860,42.801 C15.808,45.764 20.512,47.330 25.463,47.330 C37.969,47.330 48.144,37.156 48.144,24.650 C48.144,20.396 46.960,16.251 44.720,12.662 C44.446,12.222 44.580,11.644 45.020,11.369 C45.459,11.096 46.037,11.230 46.312,11.669 C48.737,15.557 50.019,20.046 50.019,24.650 C50.019,38.190 39.003,49.206 25.463,49.206 ZM34.783,35.484 C34.265,35.484 33.845,35.063 33.845,34.546 L33.845,29.046 L26.907,29.046 C26.569,29.046 26.258,28.864 26.091,28.571 C25.925,28.277 25.929,27.917 26.102,27.627 L33.977,14.439 C34.243,13.995 34.818,13.849 35.263,14.115 C35.554,14.288 35.716,14.595 35.719,14.911 C35.719,14.914 35.720,14.916 35.720,14.919 L35.720,22.528 C35.720,23.046 35.300,23.465 34.783,23.465 C34.265,23.465 33.845,23.046 33.845,22.528 L33.845,18.318 L28.559,27.170 L33.845,27.170 L33.845,25.654 C33.845,25.136 34.265,24.716 34.783,24.716 C35.300,24.716 35.720,25.136 35.720,25.654 L35.720,27.170 L38.321,27.170 C38.839,27.170 39.259,27.590 39.259,28.108 C39.259,28.625 38.839,29.046 38.321,29.046 L35.720,29.046 L35.720,34.546 C35.720,35.063 35.300,35.484 34.783,35.484 ZM18.375,15.857 C16.186,15.857 14.406,17.637 14.406,19.826 C14.406,20.344 13.986,20.764 13.468,20.764 C12.950,20.764 12.531,20.344 12.531,19.826 C12.531,16.604 15.152,13.982 18.375,13.982 C21.597,13.982 24.219,16.604 24.219,19.826 C24.219,23.241 22.889,26.451 20.475,28.865 L15.732,33.608 L23.282,33.608 C23.799,33.608 24.219,34.028 24.219,34.546 C24.219,35.063 23.799,35.484 23.281,35.484 L13.468,35.484 C13.089,35.484 12.747,35.255 12.602,34.905 C12.457,34.554 12.537,34.151 12.805,33.883 L19.149,27.540 C21.209,25.480 22.344,22.740 22.344,19.826 C22.344,17.637 20.563,15.857 18.375,15.857 ZM42.832,9.558 L38.772,9.654 C38.765,9.654 38.757,9.654 38.749,9.654 C38.242,9.654 37.824,9.250 37.812,8.740 C37.800,8.222 38.210,7.792 38.727,7.780 L40.570,7.737 C36.435,4.050 31.041,1.969 25.463,1.969 C12.957,1.969 2.782,12.144 2.782,24.650 C2.782,30.790 5.197,36.541 9.581,40.843 C9.951,41.205 9.957,41.799 9.594,42.168 C9.411,42.356 9.168,42.449 8.925,42.449 C8.688,42.449 8.451,42.360 8.269,42.181 C3.522,37.525 0.907,31.298 0.907,24.650 C0.907,11.110 11.923,0.094 25.463,0.094 C28.948,0.094 32.316,0.809 35.473,2.220 C37.803,3.261 39.928,4.641 41.818,6.332 L41.776,4.583 C41.764,4.065 42.174,3.636 42.691,3.623 C43.208,3.612 43.638,4.020 43.651,4.538 L43.747,8.599 C43.760,9.116 43.350,9.546 42.832,9.558 Z"
	/>
</svg>