<svg 
 xmlns="http://www.w3.org/2000/svg"
 xmlns:xlink="http://www.w3.org/1999/xlink"
 width="54" height="37">
<path fill-rule="evenodd"  fill="rgb(163, 187, 200)"
 d="M46.781,17.812 L46.781,19.804 C46.781,20.238 46.429,20.590 45.995,20.590 C45.562,20.590 45.210,20.238 45.210,19.804 L45.210,17.812 C45.210,17.377 45.562,17.025 45.995,17.025 C46.429,17.025 46.781,17.377 46.781,17.812 ZM36.757,14.090 L36.757,6.700 C36.757,6.266 37.108,5.914 37.542,5.914 L41.843,5.914 C44.566,5.914 46.781,8.130 46.781,10.855 L46.781,14.090 C46.781,14.525 46.429,14.877 45.995,14.877 L37.542,14.877 C37.108,14.877 36.757,14.525 36.757,14.090 ZM38.328,13.304 L45.210,13.304 L45.210,10.855 C45.210,8.998 43.700,7.487 41.843,7.487 L38.328,7.487 L38.328,13.304 ZM49.137,25.727 L46.355,25.727 C45.977,28.100 43.918,29.919 41.443,29.919 C38.967,29.919 36.909,28.100 36.531,25.727 L25.279,25.727 C24.902,28.100 22.843,29.919 20.368,29.919 C17.892,29.919 15.834,28.100 15.456,25.727 L13.037,25.727 C12.603,25.727 12.252,25.374 12.252,24.940 L12.252,1.354 C12.252,0.920 12.603,0.568 13.037,0.568 L19.083,0.568 C19.517,0.568 19.869,0.920 19.869,1.354 C19.869,1.788 19.517,2.140 19.083,2.140 L13.822,2.140 L13.822,24.154 L15.456,24.154 C15.834,21.780 17.892,19.961 20.368,19.961 C22.843,19.961 24.902,21.780 25.279,24.154 L33.615,24.154 L33.615,23.029 C33.615,22.595 33.967,22.243 34.400,22.243 C34.834,22.243 35.186,22.595 35.186,23.029 L35.186,24.154 L36.531,24.154 C36.909,21.780 38.967,19.961 41.443,19.961 C43.919,19.961 45.977,21.780 46.355,24.154 L48.352,24.154 L48.352,10.855 C48.352,7.264 45.432,4.342 41.843,4.342 L35.186,4.342 L35.186,19.360 C35.186,19.794 34.834,20.146 34.400,20.146 C33.967,20.146 33.615,19.794 33.615,19.360 L33.615,2.140 L22.225,2.140 C21.791,2.140 21.440,1.788 21.440,1.354 C21.440,0.920 21.791,0.568 22.225,0.568 L34.400,0.568 C34.834,0.568 35.186,0.920 35.186,1.354 L35.186,2.769 L41.843,2.769 C46.298,2.769 49.922,6.397 49.922,10.855 L49.922,24.940 C49.922,25.374 49.571,25.727 49.137,25.727 ZM20.368,21.534 C18.491,21.534 16.964,23.062 16.964,24.940 C16.964,26.819 18.491,28.347 20.368,28.347 C22.244,28.347 23.771,26.819 23.771,24.940 C23.771,23.062 22.244,21.534 20.368,21.534 ZM41.443,21.534 C39.567,21.534 38.040,23.061 38.040,24.940 C38.040,24.940 38.040,24.940 38.040,24.940 C38.040,24.941 38.040,24.941 38.040,24.941 C38.040,26.819 39.567,28.347 41.443,28.347 C43.320,28.347 44.847,26.819 44.847,24.940 C44.847,23.062 43.320,21.534 41.443,21.534 ZM41.443,26.967 C40.327,26.967 39.418,26.058 39.418,24.940 C39.418,23.823 40.327,22.914 41.443,22.914 C42.560,22.914 43.468,23.823 43.468,24.940 C43.468,26.058 42.560,26.967 41.443,26.967 ZM41.443,24.486 C41.193,24.486 40.989,24.689 40.989,24.940 C40.989,25.191 41.193,25.395 41.443,25.395 C41.693,25.395 41.897,25.191 41.897,24.940 C41.897,24.689 41.693,24.486 41.443,24.486 ZM20.368,26.967 C19.251,26.967 18.343,26.058 18.343,24.940 C18.343,23.823 19.251,22.914 20.368,22.914 C21.484,22.914 22.392,23.823 22.392,24.940 C22.392,26.058 21.484,26.967 20.368,26.967 ZM20.368,24.486 C20.117,24.486 19.913,24.689 19.913,24.940 C19.913,25.191 20.117,25.395 20.368,25.395 C20.618,25.395 20.822,25.191 20.822,24.940 C20.822,24.689 20.618,24.486 20.368,24.486 ZM10.340,17.912 L4.738,17.912 C4.304,17.912 3.952,17.560 3.952,17.126 C3.952,16.692 4.304,16.340 4.738,16.340 L10.340,16.340 C10.774,16.340 11.125,16.692 11.125,17.126 C11.125,17.560 10.774,17.912 10.340,17.912 ZM9.816,6.906 L3.690,6.906 C3.257,6.906 2.905,6.554 2.905,6.119 C2.905,5.686 3.257,5.334 3.690,5.334 L9.816,5.334 C10.250,5.334 10.602,5.686 10.602,6.119 C10.602,6.554 10.250,6.906 9.816,6.906 ZM9.031,12.409 C9.031,12.843 8.679,13.195 8.246,13.195 L1.596,13.195 C1.162,13.195 0.811,12.843 0.811,12.409 C0.811,11.975 1.162,11.623 1.596,11.623 L8.246,11.623 C8.679,11.623 9.031,11.975 9.031,12.409 ZM1.596,22.629 L4.983,22.629 C5.417,22.629 5.769,22.981 5.769,23.415 C5.769,23.849 5.417,24.202 4.983,24.202 L1.596,24.202 C1.162,24.202 0.811,23.849 0.811,23.415 C0.811,22.981 1.162,22.629 1.596,22.629 ZM7.602,22.629 L8.246,22.629 C8.679,22.629 9.031,22.981 9.031,23.415 C9.031,23.849 8.679,24.202 8.246,24.202 L7.602,24.202 C7.168,24.202 6.816,23.849 6.816,23.415 C6.816,22.981 7.168,22.629 7.602,22.629 Z"/>
<path fill-rule="evenodd"  opacity="0.341" fill="rgb(163, 187, 200)"
 d="M44.750,17.406 C50.169,17.406 54.562,21.792 54.562,27.203 C54.562,32.614 50.169,37.000 44.750,37.000 C39.331,37.000 34.937,32.614 34.937,27.203 C34.937,21.792 39.331,17.406 44.750,17.406 Z"/>
</svg>