<svg 
 xmlns="http://www.w3.org/2000/svg"
 xmlns:xlink="http://www.w3.org/1999/xlink"
 width="54" height="53">
<path fill-rule="evenodd"  fill="rgb(163, 187, 200)"
 d="M40.382,26.240 C39.920,26.240 39.546,25.866 39.546,25.404 L39.546,23.363 C38.246,22.997 37.289,21.801 37.289,20.384 C37.289,18.677 38.677,17.289 40.382,17.289 C42.086,17.289 43.474,18.677 43.474,20.384 C43.474,21.801 42.517,22.997 41.217,23.363 L41.217,25.404 C41.217,25.866 40.843,26.240 40.382,26.240 ZM41.802,20.384 C41.802,19.601 41.165,18.962 40.382,18.962 C39.598,18.962 38.961,19.600 38.961,20.384 C38.961,21.169 39.598,21.806 40.382,21.806 C41.165,21.806 41.802,21.169 41.802,20.384 ZM48.534,22.737 C48.996,22.737 49.370,23.111 49.370,23.573 L49.370,26.759 C49.370,28.438 48.005,29.803 46.328,29.803 L34.434,29.803 C32.757,29.803 31.393,28.438 31.393,26.759 L31.393,16.012 C31.393,14.556 32.420,13.335 33.786,13.037 L33.786,7.021 C33.786,3.380 36.745,0.418 40.381,0.418 C44.018,0.418 46.976,3.380 46.976,7.021 L46.976,13.037 C48.343,13.335 49.370,14.555 49.370,16.011 L49.370,20.784 C49.370,21.246 48.996,21.621 48.534,21.621 C48.073,21.621 47.698,21.246 47.698,20.784 L47.698,16.011 C47.698,15.256 47.084,14.640 46.328,14.640 L34.434,14.640 C33.679,14.640 33.065,15.256 33.065,16.011 L33.065,26.759 C33.065,27.515 33.679,28.130 34.434,28.130 L46.328,28.130 C47.084,28.130 47.698,27.515 47.698,26.759 L47.698,23.573 C47.698,23.111 48.073,22.737 48.534,22.737 ZM35.458,12.967 L45.304,12.967 L45.304,7.021 C45.304,4.302 43.096,2.092 40.381,2.092 C37.666,2.092 35.458,4.302 35.458,7.021 L35.458,12.967 ZM5.711,35.228 L13.896,35.228 C14.357,35.228 14.731,35.603 14.731,36.064 C14.731,36.527 14.357,36.901 13.895,36.901 L5.711,36.901 C5.249,36.901 4.875,36.527 4.875,36.064 C4.875,35.603 5.249,35.228 5.711,35.228 ZM5.711,31.236 L19.982,31.236 C20.443,31.236 20.818,31.611 20.818,32.073 C20.818,32.535 20.443,32.910 19.982,32.910 L5.711,32.910 C5.249,32.910 4.875,32.535 4.875,32.073 C4.875,31.611 5.249,31.236 5.711,31.236 ZM29.220,21.355 L15.004,21.355 C14.543,21.355 14.168,20.980 14.168,20.518 C14.168,20.056 14.543,19.681 15.004,19.681 L29.220,19.681 C29.682,19.681 30.056,20.056 30.056,20.518 C30.056,20.980 29.682,21.355 29.220,21.355 ZM29.220,28.497 L1.929,28.497 L1.929,40.417 C1.929,41.610 2.900,42.582 4.092,42.582 L43.427,42.582 C44.619,42.582 45.589,41.610 45.589,40.417 L45.589,32.151 C45.589,31.690 45.964,31.315 46.425,31.315 C46.887,31.315 47.261,31.690 47.261,32.151 L47.261,40.417 C47.261,42.533 45.541,44.254 43.427,44.254 L4.092,44.254 C1.978,44.254 0.258,42.532 0.258,40.417 L0.258,16.797 C0.258,14.680 1.978,12.959 4.092,12.958 L29.220,12.958 C29.682,12.958 30.056,13.333 30.056,13.794 C30.056,14.256 29.682,14.631 29.220,14.631 L4.092,14.631 C2.900,14.631 1.929,15.603 1.929,16.797 L1.929,19.681 L11.798,19.681 C12.259,19.681 12.634,20.056 12.634,20.518 C12.634,20.980 12.259,21.354 11.798,21.354 L1.929,21.354 L1.929,26.824 L29.220,26.824 C29.682,26.824 30.056,27.199 30.056,27.661 C30.056,28.123 29.682,28.497 29.220,28.497 Z"/>
<path fill-rule="evenodd"  opacity="0.341" fill="rgb(163, 187, 200)"
 d="M44.000,33.062 C49.419,33.062 53.812,37.448 53.812,42.859 C53.812,48.270 49.419,52.656 44.000,52.656 C38.581,52.656 34.187,48.270 34.187,42.859 C34.187,37.448 38.581,33.062 44.000,33.062 Z"/>
</svg>