<svg xmlns="http://www.w3.org/2000/svg" width="54" height="53"><path fill-rule="evenodd" fill="#A3BBC8" d="M40.382 26.24a.836.836 0 01-.836-.836v-2.041a3.1 3.1 0 01-2.257-2.979 3.098 3.098 0 013.093-3.095 3.097 3.097 0 013.092 3.095 3.1 3.1 0 01-2.257 2.979v2.041a.835.835 0 01-.835.836zm1.42-5.856c0-.783-.637-1.422-1.42-1.422a1.423 1.423 0 000 2.844c.783 0 1.42-.637 1.42-1.422zm6.732 2.353c.462 0 .836.374.836.836v3.186a3.046 3.046 0 01-3.042 3.044H34.434a3.045 3.045 0 01-3.041-3.044V16.012a3.05 3.05 0 012.393-2.975V7.021c0-3.641 2.959-6.603 6.595-6.603 3.637 0 6.595 2.962 6.595 6.603v6.016a3.048 3.048 0 012.394 2.974v4.773a.836.836 0 11-1.672 0v-4.773c0-.755-.614-1.371-1.37-1.371H34.434c-.755 0-1.369.616-1.369 1.371v10.748c0 .756.614 1.371 1.369 1.371h11.894c.756 0 1.37-.615 1.37-1.371v-3.186c0-.462.375-.836.836-.836zm-13.076-9.77h9.846V7.021a4.93 4.93 0 00-4.923-4.929 4.93 4.93 0 00-4.923 4.929v5.946zM5.711 35.228h8.185a.836.836 0 01-.001 1.673H5.711a.836.836 0 110-1.673zm0-3.992h14.271a.837.837 0 010 1.674H5.711a.836.836 0 010-1.674zm23.509-9.881H15.004a.837.837 0 010-1.674H29.22a.836.836 0 010 1.674zm0 7.142H1.929v11.92c0 1.193.971 2.165 2.163 2.165h39.335a2.167 2.167 0 002.162-2.165v-8.266a.837.837 0 011.672 0v8.266a3.84 3.84 0 01-3.834 3.837H4.092a3.84 3.84 0 01-3.834-3.837v-23.62a3.841 3.841 0 013.834-3.839H29.22a.836.836 0 010 1.673H4.092a2.168 2.168 0 00-2.163 2.166v2.884h9.869a.837.837 0 010 1.673H1.929v5.47H29.22a.836.836 0 010 1.673z"/><path fill-rule="evenodd" opacity=".341" fill="#A3BBC8" d="M44 33.062c5.419 0 9.812 4.386 9.812 9.797 0 5.411-4.393 9.797-9.812 9.797s-9.813-4.386-9.813-9.797c0-5.411 4.394-9.797 9.813-9.797z"/></svg>