<svg xmlns="http://www.w3.org/2000/svg" width="12" height="13"><path d="M3.965 7.313h-1.07c-.18 0-.325-.137-.325-.305V5.992c0-.168.145-.304.325-.304h1.07c.176 0 .32.136.32.304v1.016a.314.314 0 01-.32.304zm2.89-.305V5.992a.314.314 0 00-.32-.304h-1.07a.314.314 0 00-.32.304v1.016c0 .168.144.304.32.304h1.07c.176 0 .32-.136.32-.304zm2.575 0V5.992c0-.168-.145-.304-.325-.304h-1.07a.314.314 0 00-.32.304v1.016c0 .168.144.304.32.304h1.07c.18 0 .325-.136.325-.304zM6.855 9.445V8.43a.314.314 0 00-.32-.305h-1.07a.314.314 0 00-.32.305v1.015c0 .168.144.305.32.305h1.07c.176 0 .32-.137.32-.305zm-2.57 0V8.43a.314.314 0 00-.32-.305h-1.07c-.18 0-.325.137-.325.305v1.015c0 .168.145.305.325.305h1.07c.176 0 .32-.137.32-.305zm5.145 0V8.43c0-.168-.145-.305-.325-.305h-1.07a.314.314 0 00-.32.305v1.015c0 .168.144.305.32.305h1.07c.18 0 .325-.137.325-.305zM12 2.844v8.937c0 .672-.574 1.219-1.285 1.219h-9.43C.575 13 0 12.453 0 11.781V2.844c0-.672.574-1.219 1.285-1.219H2.57V.305c0-.168.145-.305.325-.305h1.07c.176 0 .32.137.32.305v1.32h3.43V.305c0-.168.144-.305.32-.305h1.07c.18 0 .325.137.325.305v1.32h1.285c.71 0 1.285.547 1.285 1.219zm-1.285 8.785V4.063h-9.43v7.566c0 .082.074.152.16.152h9.11c.086 0 .16-.07.16-.152zm0 0" fill="#9a9a9a" id="surface1"/></svg>