
<svg xmlns="http://www.w3.org/2000/svg" xmlns:xlink="http://www.w3.org/1999/xlink" width="11" height="13" viewBox="0 0 11 13" version="1.1">

<path style=" stroke:none;fill-rule:nonzero;fill:#fff;fill-opacity:1;" d="M 5.5 6.5 C 7.234375 6.5 8.644531 5.046875 8.644531 3.25 C 8.644531 1.453125 7.234375 0 5.5 0 C 3.765625 0 2.355469 1.453125 2.355469 3.25 C 2.355469 5.046875 3.765625 6.5 5.5 6.5 Z M 7.699219 7.3125 L 7.289062 7.3125 C 6.746094 7.570312 6.136719 7.71875 5.5 7.71875 C 4.863281 7.71875 4.257812 7.570312 3.710938 7.3125 L 3.300781 7.3125 C 1.476562 7.3125 0 8.839844 0 10.726562 L 0 11.78125 C 0 12.453125 0.527344 13 1.179688 13 L 9.820312 13 C 10.472656 13 11 12.453125 11 11.78125 L 11 10.726562 C 11 8.839844 9.523438 7.3125 7.699219 7.3125 Z M 7.699219 7.3125 "/>
</svg>
