<svg xmlns="http://www.w3.org/2000/svg" width="54" height="37"><path fill-rule="evenodd" fill="#A3BBC8" d="M46.781 17.812v1.992a.786.786 0 01-1.571 0v-1.992a.786.786 0 111.571 0zM36.757 14.09V6.7c0-.434.351-.786.785-.786h4.301a4.945 4.945 0 014.938 4.941v3.235a.786.786 0 01-.786.787h-8.453a.785.785 0 01-.785-.787zm1.571-.786h6.882v-2.449a3.371 3.371 0 00-3.367-3.368h-3.515v5.817zm10.809 12.423h-2.782a4.984 4.984 0 01-4.912 4.192 4.983 4.983 0 01-4.912-4.192H25.279a4.982 4.982 0 01-4.911 4.192 4.983 4.983 0 01-4.912-4.192h-2.419a.786.786 0 01-.785-.787V1.354c0-.434.351-.786.785-.786h6.046a.786.786 0 010 1.572h-5.261v22.014h1.634a4.983 4.983 0 014.912-4.193 4.982 4.982 0 014.911 4.193h8.336v-1.125a.786.786 0 111.571 0v1.125h1.345a4.983 4.983 0 014.912-4.193 4.983 4.983 0 014.912 4.193h1.997V10.855c0-3.591-2.92-6.513-6.509-6.513h-6.657V19.36a.786.786 0 01-1.571 0V2.14h-11.39a.785.785 0 010-1.572H34.4c.434 0 .786.352.786.786v1.415h6.657c4.455 0 8.079 3.628 8.079 8.086V24.94a.786.786 0 01-.785.787zm-28.769-4.193a3.409 3.409 0 00-3.404 3.406 3.41 3.41 0 003.404 3.407 3.409 3.409 0 003.403-3.407 3.409 3.409 0 00-3.403-3.406zm21.075 0a3.408 3.408 0 00-3.403 3.406v.001a3.409 3.409 0 003.403 3.406 3.41 3.41 0 003.404-3.407 3.409 3.409 0 00-3.404-3.406zm0 5.433a2.028 2.028 0 01-2.025-2.027c0-1.117.909-2.026 2.025-2.026a2.028 2.028 0 010 4.053zm0-2.481a.454.454 0 100 .909.454.454 0 000-.909zm-21.075 2.481a2.028 2.028 0 010-4.053 2.027 2.027 0 010 4.053zm0-2.481a.455.455 0 10-.001.909.455.455 0 00.001-.909zM10.34 17.912H4.738a.786.786 0 010-1.572h5.602a.785.785 0 010 1.572zM9.816 6.906H3.69a.786.786 0 010-1.572h6.126a.786.786 0 110 1.572zm-.785 5.503a.786.786 0 01-.785.786h-6.65a.785.785 0 010-1.572h6.65c.433 0 .785.352.785.786zm-7.435 10.22h3.387a.786.786 0 010 1.573H1.596a.786.786 0 010-1.573zm6.006 0h.644a.786.786 0 010 1.573h-.644a.787.787 0 010-1.573z"/><path fill-rule="evenodd" opacity=".341" fill="#A3BBC8" d="M44.75 17.406c5.419 0 9.812 4.386 9.812 9.797 0 5.411-4.393 9.797-9.812 9.797s-9.813-4.386-9.813-9.797c0-5.411 4.394-9.797 9.813-9.797z"/></svg>