<svg xmlns="http://www.w3.org/2000/svg" width="43.12" height="39.094"><path d="M37.87 9.304V2.178A2.174 2.174 0 0036.82.291 2.076 2.076 0 0034.69.27a48.669 48.669 0 01-20.7 6.383l-6.68.034a3.286 3.286 0 00-3.23 2.949H2.72A2.749 2.749 0 00.01 12.41v6.1a2.748 2.748 0 002.71 2.774h1.36a3.32 3.32 0 001.91 2.664l4.85 13.723a2.118 2.118 0 001.98 1.428h4.86a2.1 2.1 0 001.73-.925 2.221 2.221 0 00.25-1.986l-4.15-11.785a48.668 48.668 0 0119.18 6.244 2.08 2.08 0 002.13-.021 2.174 2.174 0 001.05-1.887v-7.126a6.228 6.228 0 000-12.309zM4.05 19.14H2.72a.622.622 0 01-.62-.634v-6.1a.623.623 0 01.62-.634h1.33v7.364zm2.78 2.844a1.2 1.2 0 01-.69-1.1V10.03a1.185 1.185 0 011.17-1.2h5.67v13.262H7.23a1.027 1.027 0 01-.4-.108zm10.88 14.93a.037.037 0 01-.01.028c-.01.013-.01.013-.02.013h-4.86a.049.049 0 01-.03-.018L8.31 24.229h4.92zm18.08-8.179a.037.037 0 01-.03.041.04.04 0 01-.05 0 50.66 50.66 0 00-20.65-6.57v-13.5a50.692 50.692 0 0020.65-6.571.04.04 0 01.05 0 .037.037 0 01.03.041v26.557zm2.08-9.292v-7.974a4.089 4.089 0 010 7.974z" fill="#a3bbc8" fill-rule="evenodd"/></svg>